# MagicaVoxel @ Ephtracy

# group
o wand

# material
mtllib wand.mtl
usemtl palette

# normals
vn -1 0 0
vn 1 0 0
vn 0 0 1
vn 0 0 -1
vn 0 -1 0
vn 0 1 0

# texcoords
vt 0.0410156 0.5
vt 0.0449219 0.5
vt 0.0917969 0.5
vt 0.462891 0.5
vt 0.537109 0.5
vt 0.607422 0.5

# verts
v -0.4 1.2 0.1
v -0.4 1.2 0
v -0.4 1.6 0.1
v -0.4 1.6 0
v -0.3 1.1 0.1
v -0.3 1.1 0
v -0.3 1.2 0.1
v -0.3 1.2 0
v -0.3 1.6 0.1
v -0.3 1.6 0
v -0.3 1.7 0.1
v -0.3 1.7 0
v -0.2 0.6 0.1
v -0.2 0.6 0
v -0.2 0.7 0.1
v -0.2 0.7 0
v -0.1 0 0.1
v -0.1 0 0
v -0.1 0.1 0.2
v -0.1 0.1 0.1
v -0.1 0.2 0.2
v -0.1 0.2 0.1
v -0.1 0.4 0
v -0.1 0.4 -0.1
v -0.1 0.6 0.1
v -0.1 0.6 0
v -0.1 0.6 -0.1
v -0.1 0.7 0.2
v -0.1 0.7 0.1
v -0.1 0.7 0
v -0.1 0.8 0.2
v -0.1 0.8 0.1
v -0.1 0.9 0
v -0.1 0.9 -0.1
v -0.1 1 0
v -0.1 1 -0.1
v -0.1 1.1 0.1
v -0.1 1.1 0
v -0.1 1.1 -0.1
v -0.1 1.3 0.1
v -0.1 1.3 0
v -0.1 1.5 0.1
v -0.1 1.5 0
v -0.1 1.6 0.1
v -0.1 1.6 0
v -0.1 1.9 0.1
v -0.1 1.9 0
v 0.1 1.5 0.1
v 0.1 1.5 0
v 0.1 1.7 0.1
v 0.1 1.7 0
v 0.2 1.2 0.1
v 0.2 1.2 0
v 0.2 1.5 0.1
v 0.2 1.5 0
v -0.3 1.2 0.1
v -0.3 1.2 0
v -0.3 1.5 0.1
v -0.3 1.5 0
v -0.2 1.5 0.1
v -0.2 1.5 0
v -0.2 1.7 0.1
v -0.2 1.7 0
v 0 0 0.1
v 0 0 0
v 0 0.1 0.2
v 0 0.1 0.1
v 0 0.2 0.2
v 0 0.2 0.1
v 0 0.2 0
v 0 0.4 0.1
v 0 0.4 0
v 0 0.4 -0.1
v 0 0.6 0
v 0 0.6 -0.1
v 0 0.7 0.2
v 0 0.7 0.1
v 0 0.8 0.2
v 0 0.8 0.1
v 0 0.8 0
v 0 0.9 0.1
v 0 0.9 0
v 0 0.9 -0.1
v 0 1 0
v 0 1 -0.1
v 0 1.1 0.1
v 0 1.1 0
v 0 1.1 -0.1
v 0 1.3 0.1
v 0 1.3 0
v 0 1.5 0.1
v 0 1.5 0
v 0 1.6 0.1
v 0 1.6 0
v 0 1.9 0.1
v 0 1.9 0
v 0.1 0.2 0.1
v 0.1 0.2 0
v 0.1 0.3 0.1
v 0.1 0.3 0
v 0.1 0.4 0.1
v 0.1 0.4 0
v 0.1 0.8 0.1
v 0.1 0.8 0
v 0.1 0.9 0.1
v 0.1 0.9 0
v 0.2 1.1 0.1
v 0.2 1.1 0
v 0.2 1.2 0.1
v 0.2 1.2 0
v 0.2 1.6 0.1
v 0.2 1.6 0
v 0.2 1.7 0.1
v 0.2 1.7 0
v 0.3 1.2 0.1
v 0.3 1.2 0
v 0.3 1.6 0.1
v 0.3 1.6 0
v -0.1 0.1 0.2
v -0.1 0.2 0.2
v -0.1 0.7 0.2
v -0.1 0.8 0.2
v 0 0.1 0.2
v 0 0.2 0.2
v 0 0.7 0.2
v 0 0.8 0.2
v -0.4 1.2 0.1
v -0.4 1.6 0.1
v -0.3 1.1 0.1
v -0.3 1.2 0.1
v -0.3 1.5 0.1
v -0.3 1.6 0.1
v -0.3 1.7 0.1
v -0.2 0.6 0.1
v -0.2 0.7 0.1
v -0.2 1.5 0.1
v -0.2 1.7 0.1
v -0.1 0 0.1
v -0.1 0.1 0.1
v -0.1 0.2 0.1
v -0.1 0.6 0.1
v -0.1 0.7 0.1
v -0.1 0.8 0.1
v -0.1 1.1 0.1
v -0.1 1.3 0.1
v -0.1 1.5 0.1
v -0.1 1.6 0.1
v -0.1 1.9 0.1
v 0 0 0.1
v 0 0.1 0.1
v 0 0.2 0.1
v 0 0.3 0.1
v 0 0.4 0.1
v 0 0.7 0.1
v 0 0.8 0.1
v 0 0.9 0.1
v 0 1.1 0.1
v 0 1.3 0.1
v 0 1.5 0.1
v 0 1.6 0.1
v 0 1.9 0.1
v 0.1 0.2 0.1
v 0.1 0.3 0.1
v 0.1 0.4 0.1
v 0.1 0.8 0.1
v 0.1 0.9 0.1
v 0.1 1.5 0.1
v 0.1 1.7 0.1
v 0.2 1.1 0.1
v 0.2 1.2 0.1
v 0.2 1.5 0.1
v 0.2 1.6 0.1
v 0.2 1.7 0.1
v 0.3 1.2 0.1
v 0.3 1.6 0.1
v -0.4 1.2 0
v -0.4 1.6 0
v -0.3 1.1 0
v -0.3 1.2 0
v -0.3 1.5 0
v -0.3 1.6 0
v -0.3 1.7 0
v -0.2 0.6 0
v -0.2 0.7 0
v -0.2 1.5 0
v -0.2 1.7 0
v -0.1 0 0
v -0.1 0.4 0
v -0.1 0.6 0
v -0.1 0.7 0
v -0.1 0.9 0
v -0.1 1.1 0
v -0.1 1.3 0
v -0.1 1.5 0
v -0.1 1.6 0
v -0.1 1.9 0
v 0 0 0
v 0 0.2 0
v 0 0.3 0
v 0 0.4 0
v 0 0.6 0
v 0 0.8 0
v 0 0.9 0
v 0 1.1 0
v 0 1.3 0
v 0 1.5 0
v 0 1.6 0
v 0 1.9 0
v 0.1 0.2 0
v 0.1 0.3 0
v 0.1 0.4 0
v 0.1 0.8 0
v 0.1 0.9 0
v 0.1 1.5 0
v 0.1 1.7 0
v 0.2 1.1 0
v 0.2 1.2 0
v 0.2 1.5 0
v 0.2 1.6 0
v 0.2 1.7 0
v 0.3 1.2 0
v 0.3 1.6 0
v -0.1 0.4 -0.1
v -0.1 0.6 -0.1
v -0.1 0.9 -0.1
v -0.1 1 -0.1
v -0.1 1.1 -0.1
v 0 0.4 -0.1
v 0 0.6 -0.1
v 0 0.9 -0.1
v 0 1 -0.1
v 0 1.1 -0.1
v -0.1 0 0.1
v 0 0 0.1
v -0.1 0 0
v 0 0 0
v -0.1 0.1 0.2
v 0 0.1 0.2
v -0.1 0.1 0.1
v 0 0.1 0.1
v 0 0.2 0.1
v 0.1 0.2 0.1
v 0 0.2 0
v 0.1 0.2 0
v -0.1 0.4 0
v 0 0.4 0
v -0.1 0.4 -0.1
v 0 0.4 -0.1
v -0.2 0.6 0.1
v -0.1 0.6 0.1
v -0.2 0.6 0
v -0.1 0.6 0
v -0.1 0.7 0.2
v 0 0.7 0.2
v -0.1 0.7 0.1
v 0 0.7 0.1
v 0 0.8 0.1
v 0.1 0.8 0.1
v 0 0.8 0
v 0.1 0.8 0
v -0.1 0.9 0
v 0 0.9 0
v -0.1 0.9 -0.1
v 0 0.9 -0.1
v -0.3 1.1 0.1
v -0.1 1.1 0.1
v 0 1.1 0.1
v 0.2 1.1 0.1
v -0.3 1.1 0
v -0.1 1.1 0
v 0 1.1 0
v 0.2 1.1 0
v -0.4 1.2 0.1
v -0.3 1.2 0.1
v 0.2 1.2 0.1
v 0.3 1.2 0.1
v -0.4 1.2 0
v -0.3 1.2 0
v 0.2 1.2 0
v 0.3 1.2 0
v -0.1 1.3 0.1
v 0 1.3 0.1
v -0.1 1.3 0
v 0 1.3 0
v -0.3 1.5 0.1
v -0.2 1.5 0.1
v 0.1 1.5 0.1
v 0.2 1.5 0.1
v -0.3 1.5 0
v -0.2 1.5 0
v 0.1 1.5 0
v 0.2 1.5 0
v -0.1 0.2 0.2
v 0 0.2 0.2
v -0.1 0.2 0.1
v 0 0.2 0.1
v 0 0.4 0.1
v 0.1 0.4 0.1
v 0 0.4 0
v 0.1 0.4 0
v -0.1 0.6 0
v 0 0.6 0
v -0.1 0.6 -0.1
v 0 0.6 -0.1
v -0.2 0.7 0.1
v -0.1 0.7 0.1
v -0.2 0.7 0
v -0.1 0.7 0
v -0.1 0.8 0.2
v 0 0.8 0.2
v -0.1 0.8 0.1
v 0 0.8 0.1
v 0 0.9 0.1
v 0.1 0.9 0.1
v 0 0.9 0
v 0.1 0.9 0
v -0.1 1.1 0
v 0 1.1 0
v -0.1 1.1 -0.1
v 0 1.1 -0.1
v -0.3 1.2 0.1
v 0.2 1.2 0.1
v -0.3 1.2 0
v 0.2 1.2 0
v -0.4 1.6 0.1
v -0.3 1.6 0.1
v 0.2 1.6 0.1
v 0.3 1.6 0.1
v -0.4 1.6 0
v -0.3 1.6 0
v 0.2 1.6 0
v 0.3 1.6 0
v -0.3 1.7 0.1
v -0.2 1.7 0.1
v 0.1 1.7 0.1
v 0.2 1.7 0.1
v -0.3 1.7 0
v -0.2 1.7 0
v 0.1 1.7 0
v 0.2 1.7 0
v -0.1 1.9 0.1
v 0 1.9 0.1
v -0.1 1.9 0
v 0 1.9 0

# faces
f 3/5/1 2/5/1 1/5/1
f 4/5/1 2/5/1 3/5/1
f 7/5/1 6/5/1 5/5/1
f 8/5/1 6/5/1 7/5/1
f 11/5/1 10/5/1 9/5/1
f 12/5/1 10/5/1 11/5/1
f 15/4/1 14/4/1 13/4/1
f 16/4/1 14/4/1 15/4/1
f 20/5/1 18/5/1 17/5/1
f 21/4/1 20/4/1 19/4/1
f 22/5/1 18/5/1 20/5/1
f 22/4/1 20/4/1 21/4/1
f 23/5/1 18/5/1 22/5/1
f 25/5/1 23/5/1 22/5/1
f 26/6/1 24/6/1 23/6/1
f 26/5/1 23/5/1 25/5/1
f 27/6/1 24/6/1 26/6/1
f 31/6/1 29/6/1 28/6/1
f 32/5/1 30/5/1 29/5/1
f 32/6/1 29/6/1 31/6/1
f 33/5/1 30/5/1 32/5/1
f 35/5/1 33/5/1 32/5/1
f 35/6/1 34/6/1 33/6/1
f 36/6/1 34/6/1 35/6/1
f 37/5/1 35/5/1 32/5/1
f 38/4/1 36/4/1 35/4/1
f 38/5/1 35/5/1 37/5/1
f 39/4/1 36/4/1 38/4/1
f 42/1/1 41/1/1 40/1/1
f 43/1/1 41/1/1 42/1/1
f 44/2/1 43/2/1 42/2/1
f 45/2/1 43/2/1 44/2/1
f 46/3/1 45/3/1 44/3/1
f 47/3/1 45/3/1 46/3/1
f 50/5/1 49/5/1 48/5/1
f 51/5/1 49/5/1 50/5/1
f 54/5/1 53/5/1 52/5/1
f 55/5/1 53/5/1 54/5/1
f 56/5/2 57/5/2 58/5/2
f 58/5/2 57/5/2 59/5/2
f 60/5/2 61/5/2 62/5/2
f 62/5/2 61/5/2 63/5/2
f 64/5/2 65/5/2 67/5/2
f 66/4/2 67/4/2 68/4/2
f 67/5/2 65/5/2 69/5/2
f 68/4/2 67/4/2 69/4/2
f 69/5/2 65/5/2 70/5/2
f 71/5/2 72/5/2 74/5/2
f 72/6/2 73/6/2 74/6/2
f 74/6/2 73/6/2 75/6/2
f 71/5/2 74/5/2 77/5/2
f 76/6/2 77/6/2 78/6/2
f 77/5/2 74/5/2 79/5/2
f 78/6/2 77/6/2 79/6/2
f 79/5/2 74/5/2 80/5/2
f 81/5/2 82/5/2 84/5/2
f 82/6/2 83/6/2 84/6/2
f 84/6/2 83/6/2 85/6/2
f 81/5/2 84/5/2 86/5/2
f 84/4/2 85/4/2 87/4/2
f 86/5/2 84/5/2 87/5/2
f 87/4/2 85/4/2 88/4/2
f 89/1/2 90/1/2 91/1/2
f 91/1/2 90/1/2 92/1/2
f 91/2/2 92/2/2 93/2/2
f 93/2/2 92/2/2 94/2/2
f 93/3/2 94/3/2 95/3/2
f 95/3/2 94/3/2 96/3/2
f 97/4/2 98/4/2 99/4/2
f 99/4/2 98/4/2 100/4/2
f 99/6/2 100/6/2 101/6/2
f 101/6/2 100/6/2 102/6/2
f 103/6/2 104/6/2 105/6/2
f 105/6/2 104/6/2 106/6/2
f 107/5/2 108/5/2 109/5/2
f 109/5/2 108/5/2 110/5/2
f 111/5/2 112/5/2 113/5/2
f 113/5/2 112/5/2 114/5/2
f 115/5/2 116/5/2 117/5/2
f 117/5/2 116/5/2 118/5/2
f 123/4/3 120/4/3 119/4/3
f 124/4/3 120/4/3 123/4/3
f 125/6/3 122/6/3 121/6/3
f 126/6/3 122/6/3 125/6/3
f 130/5/3 128/5/3 127/5/3
f 131/5/3 128/5/3 130/5/3
f 132/5/3 128/5/3 131/5/3
f 136/5/3 133/5/3 132/5/3
f 136/5/3 132/5/3 131/5/3
f 137/5/3 133/5/3 136/5/3
f 141/4/3 135/4/3 134/4/3
f 142/4/3 135/4/3 141/4/3
f 144/5/3 130/5/3 129/5/3
f 149/5/3 139/5/3 138/5/3
f 150/5/3 139/5/3 149/5/3
f 151/5/3 142/5/3 141/5/3
f 151/5/3 141/5/3 140/5/3
f 152/5/3 142/5/3 151/5/3
f 153/5/3 142/5/3 152/5/3
f 154/5/3 142/5/3 153/5/3
f 155/5/3 144/5/3 143/5/3
f 156/5/3 144/5/3 155/5/3
f 157/5/3 130/5/3 144/5/3
f 157/5/3 144/5/3 156/5/3
f 158/1/3 146/1/3 145/1/3
f 159/2/3 147/2/3 146/2/3
f 159/1/3 146/1/3 158/1/3
f 160/3/3 148/3/3 147/3/3
f 160/2/3 147/2/3 159/2/3
f 161/3/3 148/3/3 160/3/3
f 162/4/3 152/4/3 151/4/3
f 163/6/3 153/6/3 152/6/3
f 163/4/3 152/4/3 162/4/3
f 164/6/3 153/6/3 163/6/3
f 165/6/3 156/6/3 155/6/3
f 166/6/3 156/6/3 165/6/3
f 169/5/3 130/5/3 157/5/3
f 170/5/3 130/5/3 169/5/3
f 171/5/3 168/5/3 167/5/3
f 172/5/3 168/5/3 171/5/3
f 173/5/3 168/5/3 172/5/3
f 174/5/3 171/5/3 170/5/3
f 174/5/3 172/5/3 171/5/3
f 175/5/3 172/5/3 174/5/3
f 176/5/4 177/5/4 179/5/4
f 179/5/4 177/5/4 180/5/4
f 180/5/4 177/5/4 181/5/4
f 181/5/4 182/5/4 185/5/4
f 180/5/4 181/5/4 185/5/4
f 185/5/4 182/5/4 186/5/4
f 183/4/4 184/4/4 189/4/4
f 189/4/4 184/4/4 190/4/4
f 178/5/4 179/5/4 192/5/4
f 187/5/4 188/5/4 197/5/4
f 197/5/4 188/5/4 198/5/4
f 198/5/4 188/5/4 199/5/4
f 199/5/4 188/5/4 200/5/4
f 190/5/4 191/5/4 201/5/4
f 189/5/4 190/5/4 201/5/4
f 201/5/4 191/5/4 202/5/4
f 202/5/4 191/5/4 203/5/4
f 192/5/4 179/5/4 204/5/4
f 193/1/4 194/1/4 205/1/4
f 194/2/4 195/2/4 206/2/4
f 205/1/4 194/1/4 206/1/4
f 195/3/4 196/3/4 207/3/4
f 206/2/4 195/2/4 207/2/4
f 207/3/4 196/3/4 208/3/4
f 198/4/4 199/4/4 209/4/4
f 199/6/4 200/6/4 210/6/4
f 209/4/4 199/4/4 210/4/4
f 210/6/4 200/6/4 211/6/4
f 202/6/4 203/6/4 212/6/4
f 212/6/4 203/6/4 213/6/4
f 204/5/4 179/5/4 216/5/4
f 216/5/4 179/5/4 217/5/4
f 214/5/4 215/5/4 218/5/4
f 218/5/4 215/5/4 219/5/4
f 219/5/4 215/5/4 220/5/4
f 217/5/4 218/5/4 221/5/4
f 218/5/4 219/5/4 221/5/4
f 221/5/4 219/5/4 222/5/4
f 223/6/4 224/6/4 228/6/4
f 228/6/4 224/6/4 229/6/4
f 225/6/4 226/6/4 230/6/4
f 226/4/4 227/4/4 231/4/4
f 230/6/4 226/6/4 231/6/4
f 231/4/4 227/4/4 232/4/4
f 235/5/5 234/5/5 233/5/5
f 236/5/5 234/5/5 235/5/5
f 239/4/5 238/4/5 237/4/5
f 240/4/5 238/4/5 239/4/5
f 243/4/5 242/4/5 241/4/5
f 244/4/5 242/4/5 243/4/5
f 247/6/5 246/6/5 245/6/5
f 248/6/5 246/6/5 247/6/5
f 251/4/5 250/4/5 249/4/5
f 252/4/5 250/4/5 251/4/5
f 255/6/5 254/6/5 253/6/5
f 256/6/5 254/6/5 255/6/5
f 259/6/5 258/6/5 257/6/5
f 260/6/5 258/6/5 259/6/5
f 263/6/5 262/6/5 261/6/5
f 264/6/5 262/6/5 263/6/5
f 269/5/5 266/5/5 265/5/5
f 270/5/5 266/5/5 269/5/5
f 271/5/5 268/5/5 267/5/5
f 272/5/5 268/5/5 271/5/5
f 277/5/5 274/5/5 273/5/5
f 278/5/5 274/5/5 277/5/5
f 279/5/5 276/5/5 275/5/5
f 280/5/5 276/5/5 279/5/5
f 283/1/5 282/1/5 281/1/5
f 284/1/5 282/1/5 283/1/5
f 289/5/5 286/5/5 285/5/5
f 290/5/5 286/5/5 289/5/5
f 291/5/5 288/5/5 287/5/5
f 292/5/5 288/5/5 291/5/5
f 293/4/6 294/4/6 295/4/6
f 295/4/6 294/4/6 296/4/6
f 297/6/6 298/6/6 299/6/6
f 299/6/6 298/6/6 300/6/6
f 301/6/6 302/6/6 303/6/6
f 303/6/6 302/6/6 304/6/6
f 305/4/6 306/4/6 307/4/6
f 307/4/6 306/4/6 308/4/6
f 309/6/6 310/6/6 311/6/6
f 311/6/6 310/6/6 312/6/6
f 313/6/6 314/6/6 315/6/6
f 315/6/6 314/6/6 316/6/6
f 317/4/6 318/4/6 319/4/6
f 319/4/6 318/4/6 320/4/6
f 321/5/6 322/5/6 323/5/6
f 323/5/6 322/5/6 324/5/6
f 325/5/6 326/5/6 329/5/6
f 329/5/6 326/5/6 330/5/6
f 327/5/6 328/5/6 331/5/6
f 331/5/6 328/5/6 332/5/6
f 333/5/6 334/5/6 337/5/6
f 337/5/6 334/5/6 338/5/6
f 335/5/6 336/5/6 339/5/6
f 339/5/6 336/5/6 340/5/6
f 341/3/6 342/3/6 343/3/6
f 343/3/6 342/3/6 344/3/6
